<svg>
  <!-- CC0 content from various sources -->
  <symbol xmlns="http://www.w3.org/2000/svg" id="dice" fill="currentColor" viewBox="0 0 512 512">
    <path d="M449.525 105.602 288.456 8.989A63.017 63.017 0 0 0 256 0a63.025 63.025 0 0 0-32.46 8.989L62.469 105.602a63.112 63.112 0 0 0-30.641 54.117v192.562a63.11 63.11 0 0 0 30.641 54.117l161.072 96.613a63.097 63.097 0 0 0 64.915 0l161.069-96.613a63.113 63.113 0 0 0 30.647-54.117V159.719a63.113 63.113 0 0 0-30.647-54.117zM250.593 492.733a44.23 44.23 0 0 1-17.32-5.948l-161.07-96.613a44.193 44.193 0 0 1-21.453-37.891V159.719a44.127 44.127 0 0 1 3.514-17.233l196.328 117.76v232.487zM59.663 133.114a44.146 44.146 0 0 1 12.541-11.285l161.069-96.613a44.152 44.152 0 0 1 22.728-6.291 44.144 44.144 0 0 1 22.725 6.291l161.065 96.613a43.893 43.893 0 0 1 12.541 11.285L256 250.881 59.663 133.114zm401.584 219.167a44.205 44.205 0 0 1-21.456 37.891l-161.065 96.613a44.229 44.229 0 0 1-17.321 5.948V260.246l196.325-117.76a44.019 44.019 0 0 1 3.518 17.233v192.562z" />
    <path d="M284.992 107.012c-15.726-11.648-41.627-11.936-57.86-.658-16.227 11.285-16.643 29.875-.913 41.509 15.726 11.648 41.63 11.943 57.867.658 16.226-11.278 16.636-29.867.906-41.509zM103.958 265.785c12.574 5.162 23.463-1.538 24.316-14.964.852-13.427-8.654-28.492-21.221-33.654-12.568-5.156-23.457 1.537-24.31 14.964-.852 13.426 8.654 28.498 21.215 33.654zM202.141 421.758c12.574 5.163 23.457-1.544 24.309-14.964.852-13.427-8.647-28.499-21.214-33.655-12.574-5.156-23.457 1.537-24.316 14.964-.853 13.428 8.654 28.499 21.221 33.655zM418.341 207.902c-11.158 6.082-20.208 20.053-20.208 31.21 0 11.151 9.05 15.273 20.208 9.19 11.144-6.082 20.194-20.059 20.194-31.21 0-11.157-9.049-15.273-20.194-9.19zM305.555 382.149c-11.158 6.082-20.194 20.059-20.194 31.21 0 11.158 9.036 15.273 20.194 9.191 11.158-6.082 20.194-20.053 20.194-31.211 0-11.151-9.035-15.265-20.194-9.19zM361.948 295.028c-11.158 6.076-20.207 20.053-20.207 31.204 0 11.158 9.05 15.273 20.207 9.191 11.158-6.083 20.194-20.053 20.194-31.21 0-11.151-9.036-15.266-20.194-9.185z" />
  </symbol>
  <symbol xmlns="http://www.w3.org/2000/svg" id="colored-dice" fill="currentColor" viewBox="0 0 512 512">
    <path d="M449.525 105.602 288.456 8.989A63.017 63.017 0 0 0 256 0a63.025 63.025 0 0 0-32.46 8.989L62.469 105.602a63.112 63.112 0 0 0-30.641 54.117v192.562a63.11 63.11 0 0 0 30.641 54.117l161.072 96.613a63.097 63.097 0 0 0 64.915 0l161.069-96.613a63.113 63.113 0 0 0 30.647-54.117V159.719a63.113 63.113 0 0 0-30.647-54.117zM250.593 492.733a44.23 44.23 0 0 1-17.32-5.948l-161.07-96.613a44.193 44.193 0 0 1-21.453-37.891V159.719a44.127 44.127 0 0 1 3.514-17.233l196.328 117.76v232.487zM59.663 133.114a44.146 44.146 0 0 1 12.541-11.285l161.069-96.613a44.152 44.152 0 0 1 22.728-6.291 44.144 44.144 0 0 1 22.725 6.291l161.065 96.613a43.893 43.893 0 0 1 12.541 11.285L256 250.881 59.663 133.114zm401.584 219.167a44.205 44.205 0 0 1-21.456 37.891l-161.065 96.613a44.229 44.229 0 0 1-17.321 5.948V260.246l196.325-117.76a44.019 44.019 0 0 1 3.518 17.233v192.562z" />
    <path d="M284.992 107.012c-15.726-11.648-41.627-11.936-57.86-.658-16.227 11.285-16.643 29.875-.913 41.509 15.726 11.648 41.63 11.943 57.867.658 16.226-11.278 16.636-29.867.906-41.509z" fill="#c80000e6" />
    <path d="M103.958 265.785c12.574 5.162 23.463-1.538 24.316-14.964.852-13.427-8.654-28.492-21.221-33.654-12.568-5.156-23.457 1.537-24.31 14.964-.852 13.426 8.654 28.498 21.215 33.654zM202.141 421.758c12.574 5.163 23.457-1.544 24.309-14.964.852-13.427-8.647-28.499-21.214-33.655-12.574-5.156-23.457 1.537-24.316 14.964-.853 13.428 8.654 28.499 21.221 33.655zM418.341 207.902c-11.158 6.082-20.208 20.053-20.208 31.21 0 11.151 9.05 15.273 20.208 9.19 11.144-6.082 20.194-20.059 20.194-31.21 0-11.157-9.049-15.273-20.194-9.19zM305.555 382.149c-11.158 6.082-20.194 20.059-20.194 31.21 0 11.158 9.036 15.273 20.194 9.191 11.158-6.082 20.194-20.053 20.194-31.211 0-11.151-9.035-15.265-20.194-9.19zM361.948 295.028c-11.158 6.076-20.207 20.053-20.207 31.204 0 11.158 9.05 15.273 20.207 9.191 11.158-6.083 20.194-20.053 20.194-31.21 0-11.151-9.036-15.266-20.194-9.185z" />
  </symbol>
  <symbol xmlns="http://www.w3.org/2000/svg" id="speech-bubble-tail" fill="currentColor" viewBox="0 0 500 500">
    <path d="M0 500 C 150 350 150 150 0 0 C 250 0 500 250 500 500 Z" />
  </symbol>
</svg>
