<svg>
  <symbol xmlns="http://www.w3.org/2000/svg" id="K" fill="currentColor" viewBox="0 -1644 2048 2048">
    <g transform="scale(1, -1)">
      <path d="M391 1029l12 21q49 89 68 138l33 86q22 56 28 111q6 57 27 57q22 0 76 -27q74 -37 74 -65q0 -5 -17 -22q-14 -14 -24 -28q-4 -5 -15 -19q-10 -13 -19 -24q-24 -29 -26 -31l-79 -104l-107 -132q181 29 274 70q26 11 38 11q31 0 79 -24q8 -4 30 -21q34 -25 34 -40
  q0 -1 -1 -3q0 -2 -1 -5q-1 -6 -26 -36q-23 -27 -33 -54l-57 -154l6 -6q3 -4 8 -10q13 -15 13 -23q0 -11 -22 -18l-67 -4l-289 -35l-8 -172q9 1 25 3q3 1 13 2q33 4 66 11q112 23 173 59q29 18 42 18q50 0 120 -41q31 -18 31 -39q0 -13 -14 -35l-5 -10l-4 -6l-4 -6
  q-24 -40 -44 -112l-31 -113q36 -15 36 -34q0 -20 -28 -21l-42 -2l-191 -18q-4 0 -18 -2q-18 -2 -40 -6l-11 -1q-38 -6 -49 -6q-3 0 -10 1l-35 5q-7 -34 -12 -69q-4 -34 -21 -34q-23 0 -55 51q-32 53 -32 109q0 27 18 105q33 148 36 412l1 34q0 45 2 80v12q1 27 1 47
  q0 84 -41 144q-9 14 -9 23q0 26 35 26q16 0 55 -13zM386 172q32 3 61 7q78 10 134 20l94 17l15 134q6 52 6 74q0 35 -37 35q-22 0 -66 -15q-21 -8 -80 -20q-55 -12 -68 -12l-46 -1zM412 703l256 50l24 128l5 26l3 20l3 20q2 26 -35 26q-14 0 -49 -10q-77 -21 -169 -29
  l-35 -3zM1389 936l136 22q48 8 80 18q34 12 46 12q21 0 85 -36q63 -35 63 -62q0 -12 -15 -39q-14 -26 -16 -78l-9 -195q-8 -180 -34 -242q-17 -42 -42 -72q-28 -34 -51 -34q-22 0 -48 46q-20 33 -41 52l-37 33l-40 38q-13 12 -13 18q0 8 18 8q8 0 13 -1l55 -11q38 -9 53 -9
  q17 0 24 32q10 51 11 105l5 239v1v1q-1 2 -1 9q-2 70 -15 82q-11 11 -61 11h-8l-158 -20l-17 -846q-3 -140 -31 -245q-28 -103 -50 -103h-2h-2q-14 3 -22 43q-12 62 -12 122v19l6 996l-154 -28q-1 -12 -2 -37q0 -10 -2 -43q-11 -203 -29 -273l-23 -88q-22 -84 -47 -84
  q-19 0 -37 41q-25 55 -25 99q0 19 5 32l24 61q31 78 31 182q0 85 -34 152q-8 16 -8 20v3q0 1 1 6q5 21 38 21l34 -8l56 -12l174 20l-2 323q-1 132 -31 185q-14 24 -14 35t11 22q8 8 20 8q15 0 35 -5l62 -16q33 -9 62 -29q18 -14 18 -28q0 -11 -6 -31q-20 -62 -22 -150z" />
    </g>
  </symbol>
  <symbol xmlns="http://www.w3.org/2000/svg" id="A" fill="currentColor" viewBox="0 -1644 2048 2048">
    <g transform="scale(1, -1)">
      <path d="M508 766q-1 -2 -5 -6q-8 -9 -15 -17q-108 -127 -181 -180l-118 -85l-42 -32q-18 -14 -27 -14q-10 0 -10 16q0 9 6 15l38 39q243 249 387 519q105 196 109 293q3 56 30 56q14 0 30 -8q2 -1 7 -3q36 -16 67 -43q49 -41 49 -63q0 -11 -23 -30q-33 -29 -51 -62l-40 -73
q-7 -14 -59 -99l-21 -34q-47 -76 -70 -106l-20 -27l3 -2l5 -3q10 -6 18 -13q63 -50 62 -75q-1 -15 -11 -51q-4 -14 -7 -49q-2 -19 -4 -36l-1 -15l-2 -15q-5 -47 -5 -105l-4 -277v-11v-11q0 -8 1 -40q1 -48 3 -93q0 -7 1 -19q0 -12 1 -25q2 -21 2 -44q0 -42 -27 -102
q-20 -42 -39 -42q-18 0 -43 60q-29 68 -29 104q0 17 9 50l2 8q14 53 24 193q3 33 3 38l11 293v9v42v32l-1 32q-1 45 -2 52zM1189 693v240q0 225 -37 299q-18 38 -18 50q0 28 43 28q51 0 128 -37q69 -33 69 -61q0 -11 -10 -35q-23 -53 -30 -97q-9 -55 -10 -167l-3 -200
l291 45q57 9 110 23q37 10 57 10q42 0 124 -49q38 -23 38 -48q0 -24 -43 -26l-136 -6q-6 0 -30 -3q-25 -2 -34 -3q-1 0 -24 -3q-22 -3 -25 -3l-223 -18l-107 -10l-4 -465l18 3l27 4q115 16 179 30q51 11 71 11q45 0 108 -37q57 -33 57 -57q0 -27 -106 -32h-20l-31 -2l-35 -1
q-305 -15 -551 -60l-12 -2q-49 -9 -66 -9q-59 0 -104 23q-38 19 -40 44q-1 11 45 18l341 48l-3 463l-173 -26q-1 0 -17 -4l-14 -3q-21 -4 -46 -9q-10 -2 -36 -8q-22 -4 -31 -7q-20 -5 -32 -5q-11 -1 -13 -1q-25 0 -83 17q-61 18 -61 51q0 15 27 19z" />
    </g>
  </symbol>
  <symbol xmlns="http://www.w3.org/2000/svg" id="E" fill="currentColor" viewBox="0 -1644 2048 2048">
    <g transform="scale(1, -1)">
      <path d="M586 801l-28 -3l-41 -4l-36 -3q-93 -9 -126 -9q-54 0 -92 20q-31 16 -31 34q0 19 40 22l58 5h5q19 2 93 14l119 17l64 11v295q0 72 -25 147q-7 21 -9 26q-5 15 -5 28q0 30 33 30q16 0 39 -12l48 -25q63 -33 63 -64q0 -12 -7 -32q-22 -62 -28 -156l-14 -218l58 17l39 11
q32 9 42 9q13 0 39 -6q82 -18 82 -53q0 -24 -63 -39l-69 -17l-79 -13l-55 -9l-5 -189q18 -5 32 -9q85 -24 146 -72q57 -44 57 -102q0 -60 -45 -60q-30 0 -93 76l-100 120l-12 -582l-1 -141q0 -39 -23 -83q-22 -43 -39 -43q-26 0 -51 51q-33 70 -33 117q0 21 12 69
q11 47 22 141l5 45l5 45q7 62 7 67l19 339q-5 -7 -14 -23l-9 -14q-111 -183 -197 -264q-92 -86 -236 -150l-45 -20q-10 -4 -14 -4q-9 1 -9 11q0 8 12 18l41 34q123 102 225 222q49 57 110 159q68 112 85 148zM1147 1033l156 30q112 20 194 50q14 6 24 10q24 10 38 10
q38 0 108 -53q69 -52 69 -70q-1 -3 -6 -12l-4 -6q-38 -64 -39 -215l-6 -309q-2 -93 27 -309q2 -12 4 -26q5 -45 5 -67q0 -71 -53 -144q-41 -57 -71 -57q-18 0 -29 26l-58 132q-11 -1 -34 -4l-20 -2l-18 -2q-23 -2 -37 -4l-14 -1l-13 -1q-23 -3 -43 -4q-16 -2 -41 -3
q-6 0 -12 -1q-31 -2 -38 -2l-106 -8l-11 -53q-5 -26 -22 -26q-19 0 -45 44q-28 46 -28 91q0 22 12 86q8 46 19 145q11 105 12 129l8 364v32v28q0 22 -4 49q-12 79 -27 112q-14 28 -14 37q0 24 33 24q12 0 26 -4q5 -1 12 -2l21 -6zM1137 75q66 4 99 9l111 17l119 13
q30 3 41 3h5h2l44 -15q1 12 3 43v17q1 12 1 14l2 98l6 94q-34 -7 -70 -13l-27 -5l-22 -4l-101 -20q-85 -17 -142 -17q-11 0 -30 3l-31 5zM1150 382l12 1l18 3q74 9 168 32q19 5 33 8q57 15 81 15q30 0 66 -12l42 -14v264q-8 -2 -25 -6q-74 -18 -128 -27l-104 -18
q-75 -13 -100 -13q-10 0 -13 2l-39 9zM1161 685l9 2l15 2l13 3l17 3l16 2q114 22 183 42l9 3q36 10 56 10q22 0 43 -6l48 -14v201q0 55 -18 70q-22 17 -69 17q-20 0 -76 -7l-28 -3q-94 -11 -126 -19l-84 -20z" />
    </g>
  </symbol>
  <symbol xmlns="http://www.w3.org/2000/svg" id="H" fill="currentColor" viewBox="0 -1644 2048 2048">
    <g transform="scale(1, -1)">
      <path d="M488 817q83 -50 83 -82q0 -15 -7 -41q-4 -11 -6 -36l-1 -10l-6 -60q-3 -37 -5 -94l-10 -409q-4 -164 -16 -197q-28 -73 -50 -73q-25 0 -47 57l-15 39q-1 4 -5 12q-12 30 -12 51t12 60q18 60 32 172l3 21q4 29 4 34l9 119l9 100q4 41 4 86q0 10 -1 28l-3 78q-1 43 -5 53
l-12 35q-2 -3 -18 -21l-12 -13l-13 -15q-62 -69 -111 -112q-96 -84 -139 -108l-34 -19q-15 -9 -22 -9q-10 0 -10 8q0 11 20 31l25 24l11 10l12 12q163 163 299 388q141 236 141 361v9v5q-1 7 -1 13v4q0 34 33 34q43 0 96 -51q41 -39 41 -61q0 -9 -18 -28l-5 -4
q-5 -5 -12 -13q-23 -25 -47 -71l-40 -77q-38 -73 -113 -184zM1313 970l-5 -170l12 2l17 3q27 5 44 7l7 1q37 6 59 13q3 1 8 2q4 1 6 2q8 2 11 2q12 0 42 -10q3 0 7 -2q9 -2 21 -6q4 -1 17 -5q33 -9 33 -27q0 -15 -38 -22l-36 -7q-12 -3 -67 -8l-112 -14l-32 -4l-4 -162
l121 14l99 13q47 6 81 15q24 7 32 7q19 0 78 -31q79 -40 94 -57q15 -16 15 -30q0 -13 -11 -30l-26 -41q-13 -22 -26 -134q-32 -294 -85 -407q-36 -77 -100 -124q-71 -52 -102 -52q-26 0 -45 37l-37 73q-3 4 -27 45l-6 9q-24 40 -27 43l-18 23q-7 9 -6 16q1 10 14 10
q8 0 15 -4l34 -18q59 -31 88 -31q96 0 140 144q21 66 37 183q15 113 15 177q0 65 -19 83q-18 16 -69 16q-49 0 -144 -9q-263 -24 -396 -54q-58 -12 -80 -23l-38 -19q-11 -6 -19 -6q-15 0 -26 22l-3 6l-4 7l-4 7l-4 7q-22 37 -22 53q0 5 2 12q1 4 10 17l2 4q20 32 32 143
l2 22l3 23q8 74 8 105l6 234l1 16q0 96 -25 147q-14 27 -14 37q0 16 27 16q21 0 60 -15l49 -19q33 4 69 8l29 4q245 29 396 66l33 8q24 5 30 5h3q4 0 23 -6l8 -2q73 -25 73 -47q0 -18 -37 -24l-52 -9l-87 -16q-27 -5 -87 -12l-91 -11q42 -24 42 -40q0 -6 -8 -25t-10 -41
l-4 -63l13 2l18 3q22 5 32 6q9 2 13 3q7 1 15 3q23 4 52 12q22 7 30 7q16 0 33 -5l53 -16q31 -9 31 -27q0 -15 -37 -22l-36 -7q-17 -4 -67 -10l-112 -16zM1211 955q-5 -1 -18 -3l-9 -1l-7 -1q-7 0 -10 -1q-2 -1 -7 -1q-4 -1 -24 -4q-65 -12 -113 -12q-1 0 -8 1l-41 5l-1 -14
q0 -7 -2 -22q-1 -12 -3 -33v-1l-8 -110v-5q6 1 17 2l9 1q13 1 18 2l99 14l53 7l52 7zM979 991q5 1 16 2q18 3 33 5l7 1l8 1l13 2l60 10l48 7l47 7l1 52q2 69 -20 98l-16 22q-8 -1 -25 -3l-16 -2q-18 -2 -29 -3q-7 -1 -18 -2q-5 -1 -12 -2q-17 -1 -29 -1h-40q-1 -4 -2 -9
q-1 -3 -4 -11l-3 -12q-13 -53 -15 -86zM1208 715q-5 -1 -15 -2q-13 -2 -15 -2q-5 -1 -8 -1h-3q-3 -1 -32 -4l-16 -2q-73 -11 -104 -11h-5q-7 0 -10 1l-41 6l-8 -135v-15q0 -26 5 -31q4 -3 15 -3q7 0 25 3l209 35zM1106 276l-15 28q-6 12 -6 18q0 12 13 13q6 1 16 -3l32 -11
q40 -14 75 -45q55 -47 55 -102q0 -30 -18 -61q-16 -27 -33 -27q-32 0 -69 80l-29 63q-2 5 -13 31q-6 13 -8 16zM919 294l41 -24q32 -18 60 -52q35 -43 35 -86q0 -40 -17 -67q-17 -24 -41 -24q-32 0 -62 94l-18 57q-11 35 -16 54l-7 28q-1 6 -1 9q0 15 13 15q7 0 13 -4z
M1328 337l-14 28q-6 13 -6 19q0 12 13 12q7 0 15 -3l32 -11q40 -14 77 -44q53 -45 53 -103q0 -30 -18 -59q-15 -27 -32 -27q-32 0 -69 78l-30 63q-13 30 -15 34q-4 9 -5 10q0 2 -1 3zM786 320l6 -16q4 -9 8 -48q7 -55 7 -70t-5 -46q-12 -76 -37 -124q-34 -65 -66 -63
q-24 1 -40 39q-12 27 -12 55q0 38 30 85l5 8q10 17 20 37q34 74 38 90l11 43q8 29 19 29q9 0 16 -19z" />
    </g>
  </symbol>
  <symbol xmlns="http://www.w3.org/2000/svg" id="R" fill="currentColor" viewBox="0 -1644 2048 2048">
    <g transform="scale(1, -1)">
      <path d="M488 817q83 -50 83 -82q0 -15 -7 -41q-4 -11 -6 -36l-1 -10l-6 -60q-3 -37 -5 -94l-10 -409q-4 -164 -16 -197q-28 -73 -50 -73q-25 0 -47 57l-15 39q-1 4 -5 12q-12 30 -12 51t12 60q18 60 32 172l3 21q4 29 4 34l9 119l9 100q4 41 4 86q0 10 -1 28l-3 78q-1 43 -5 53
l-12 35q-2 -3 -18 -21l-12 -13l-13 -15q-62 -69 -111 -112q-96 -84 -139 -108l-34 -19q-15 -9 -22 -9q-10 0 -10 8q0 11 20 31l25 24l11 10l12 12q163 163 299 388q141 236 141 361v9v5q-1 7 -1 13v4q0 34 33 34q43 0 96 -51q41 -39 41 -61q0 -9 -18 -28l-5 -4
q-5 -5 -12 -13q-23 -25 -47 -71l-40 -77q-38 -73 -113 -184zM1180 346l2 180l-119 -12q-11 -1 -18 -1q-5 0 -14 1l-40 5l-4 -20q-7 -32 -22 -32q-46 0 -60 119l-27 218
q-12 95 -60 145q-16 16 -16 28q0 19 28 19q31 0 53 -7l32 -10l274 35l2 145q-3 0 -12 -1q-3 0 -11 -1h-5h-3l-109 -10q-10 -1 -17 -1q-70 0 -116 19q-38 15 -38 38q0 13 21 15l40 3h5l15 2l25 1q83 7 113 10l93 10v25v34q0 81 -5 116q-4 33 -23 77q-11 26 -11 32q0 20 32 20
q43 0 103 -35q52 -31 52 -58q0 -4 -5 -15l-2 -6t-3 -8q-8 -19 -18 -76q-1 -10 -2 -13q-2 -8 -2 -22l-3 -54q8 2 24 5q24 6 44 10l9 2q34 6 55 12l6 2l5 2l7 1q5 2 8 3t11 4q12 3 19 3q24 0 71 -21q46 -21 46 -36q0 -27 -64 -38l-58 -10l-65 -12q-49 -9 -68 -11l-54 -6
l-2 -139q40 7 64 12l137 27q42 8 58 12q21 5 31 5q20 0 78 -31q82 -44 82 -70q0 -7 -17 -26q-26 -31 -53 -114l-69 -214q-43 -132 -94 -132q-21 0 -30 18l-15 32l-180 -15l-4 -181q7 0 23 1q25 2 56 4q8 0 28 1q61 5 96 9l118 15q77 9 115 18q42 10 54 10q33 0 103 -33
q76 -36 76 -62q0 -25 -85 -31l-59 -4q-10 -1 -31 -1h-20h-24q-7 0 -18 1h-20q-50 0 -188 -4l-147 -4l-75 -3l-5 -124l-2 -117q0 -2 -3 -39l-3 -27q-9 -102 -13 -129l-3 -14l-3 -20q-23 -126 -49 -126q-25 0 -27 159l-1 13v16v17v37l1 23v28v42v50v204q-5 -1 -16 -2
q-14 -2 -26 -3l-99 -10l-104 -12q-90 -10 -158 -27q-36 -9 -57 -9q-47 0 -115 43q-41 26 -41 43q0 16 19 16l71 2l30 1q50 1 90 5l22 2q12 1 33 3q25 3 29 3l199 15q46 3 82 7zM1298 978l-3 -151l95 14q47 7 68 7q24 0 38 -6l45 -19l14 99q2 13 3 33q1 12 1 14q0 36 -42 36
q-14 0 -21 -1zM1188 965l-238 -31l19 -153l218 31zM1183 597l2 144l-208 -22l14 -148zM1292 610l113 15q17 2 43 -8l41 -16l5 17l6 24q12 44 14 52l19 89q-9 -2 -21 -5q-47 -10 -147 -19l-71 -7z" />
      <!--
      <path d="M402 1202q4 1 14 5l9 2l12 4q70 23 139 59l11 6l10 5l11 6l7 3l6 4q29 14 38 14q27 0 97 -41q45 -27 45 -47q0 -10 -19 -29l-8 -7q-15 -15 -31 -30q-40 -37 -63 -71l-37 -56q-23 -35 -23 -46q0 -12 16 -32l41 -52q85 -107 85 -219q0 -65 -25 -106q-30 -50 -62 -50
q-14 0 -33 19q-31 33 -105 85l-68 48q-14 10 -14 16q0 16 21 13l60 -7l17 -3l16 -2l10 -2l10 -1q10 -2 19 -3q28 -2 28 50q0 77 -41 147l-38 65q-13 22 -13 36q0 12 15 48l48 114q8 19 8 29q0 17 -19 17q-9 0 -21 -3l-152 -40v-3l-28 -806q0 -5 -2 -46l-3 -44l-3 -56
q-11 -196 -22 -227q-16 -44 -33 -44q-24 0 -52 48q-29 49 -29 104q0 23 8 56l1 9q55 249 59 497l6 328q1 44 -10 125q-8 60 -23 82q-16 24 -16 34q0 21 33 21t56 -10zM1180 346l2 180l-119 -12q-11 -1 -18 -1q-5 0 -14 1l-40 5l-4 -20q-7 -32 -22 -32q-46 0 -60 119l-27 218
q-12 95 -60 145q-16 16 -16 28q0 19 28 19q31 0 53 -7l32 -10l274 35l2 145q-3 0 -12 -1q-3 0 -11 -1h-5h-3l-109 -10q-10 -1 -17 -1q-70 0 -116 19q-38 15 -38 38q0 13 21 15l40 3h5l15 2l25 1q83 7 113 10l93 10v25v34q0 81 -5 116q-4 33 -23 77q-11 26 -11 32q0 20 32 20
q43 0 103 -35q52 -31 52 -58q0 -4 -5 -15l-2 -6t-3 -8q-8 -19 -18 -76q-1 -10 -2 -13q-2 -8 -2 -22l-3 -54q8 2 24 5q24 6 44 10l9 2q34 6 55 12l6 2l5 2l7 1q5 2 8 3t11 4q12 3 19 3q24 0 71 -21q46 -21 46 -36q0 -27 -64 -38l-58 -10l-65 -12q-49 -9 -68 -11l-54 -6
l-2 -139q40 7 64 12l137 27q42 8 58 12q21 5 31 5q20 0 78 -31q82 -44 82 -70q0 -7 -17 -26q-26 -31 -53 -114l-69 -214q-43 -132 -94 -132q-21 0 -30 18l-15 32l-180 -15l-4 -181q7 0 23 1q25 2 56 4q8 0 28 1q61 5 96 9l118 15q77 9 115 18q42 10 54 10q33 0 103 -33
q76 -36 76 -62q0 -25 -85 -31l-59 -4q-10 -1 -31 -1h-20h-24q-7 0 -18 1h-20q-50 0 -188 -4l-147 -4l-75 -3l-5 -124l-2 -117q0 -2 -3 -39l-3 -27q-9 -102 -13 -129l-3 -14l-3 -20q-23 -126 -49 -126q-25 0 -27 159l-1 13v16v17v37l1 23v28v42v50v204q-5 -1 -16 -2
q-14 -2 -26 -3l-99 -10l-104 -12q-90 -10 -158 -27q-36 -9 -57 -9q-47 0 -115 43q-41 26 -41 43q0 16 19 16l71 2l30 1q50 1 90 5l22 2q12 1 33 3q25 3 29 3l199 15q46 3 82 7zM1298 978l-3 -151l95 14q47 7 68 7q24 0 38 -6l45 -19l14 99q2 13 3 33q1 12 1 14q0 36 -42 36
q-14 0 -21 -1zM1188 965l-238 -31l19 -153l218 31zM1183 597l2 144l-208 -22l14 -148zM1292 610l113 15q17 2 43 -8l41 -16l5 17l6 24q12 44 14 52l19 89q-9 -2 -21 -5q-47 -10 -147 -19l-71 -7z" />
      -->
    </g>
  </symbol>
  <symbol xmlns="http://www.w3.org/2000/svg" id="C" fill="currentColor" viewBox="0 -1644 2048 2048">
    <g transform="scale(1, -1)">
      <path d="M573 762q16 22 31 42q84 113 106 217q8 38 22 38q33 0 80 -39q52 -43 52 -76q0 -13 -17 -23l-58 -33l-57 -43l-69 -55q-28 -22 -45 -32l-47 -27q-1 -13 -3 -40l-2 -25l-2 -23l-1 -24l-2 -15q-10 -139 -24 -199l-21 -90l8 -2q61 -14 143 -54q50 -25 66 -48q21 -29 21 -67
      q0 -36 -17 -56q-14 -18 -34 -18q-19 0 -37 24l-29 39l-125 161q-63 -175 -133 -266q-36 -47 -105 -109q-57 -52 -89 -70l-34 -19q-9 -5 -15 -5q-8 0 -8 10q0 7 5 12l25 27q185 201 251 445q37 140 49 290q12 143 12 369q0 255 -35 326q-11 23 -11 33q0 28 39 28
      q54 0 111 -29q48 -24 47 -44q-1 -13 -11 -41q-18 -47 -21 -121l-11 -253zM188 802l33 -11q63 -21 105 -66t42 -106q0 -90 -54 -90q-33 0 -77 73q-33 53 -59 119l-20 49q-5 12 -5 19q0 16 18 16q8 0 17 -3zM929 614l17 5q35 9 72 20q54 15 89 34t45 19q24 0 80 -26
      q59 -27 59 -50q0 -14 -22 -43q-25 -34 -38 -73l-47 -140q2 -1 3 -2q32 -21 32 -35q0 -18 -35 -21l-31 -3l-231 -48q0 -10 -1 -33l-1 -20l-1 -26q-1 -51 -1 -66q0 -125 55 -176q74 -69 339 -69q261 0 365 71q73 50 98 208l15 93q5 28 14 28q13 0 18 -24l18 -90
      q21 -113 69 -173q20 -26 20 -37q0 -29 -77 -82q-163 -113 -484 -113q-290 0 -431 101q-100 72 -100 252q0 17 1 33l8 173l2 165q1 76 -12 116q-6 18 -6 31q0 27 23 27q11 0 21 -4zM924 326q99 18 134 32l37 15l30 145q7 34 7 51q0 28 -34 28q-33 0 -94 -19l-41 -13
      q-2 -6 -7 -18q-16 -47 -19 -83zM1076 936l13 2q79 10 172 33l121 30q80 20 132 42q33 14 51 13q21 -1 85 -46q51 -35 51 -68q0 -3 -4 -12q-3 -9 -6 -15q-12 -29 -19 -64l-15 -74q-8 -42 -20 -122l-4 -21l-3 -22l-4 -30q-28 -177 -59 -248q-55 -128 -132 -128q-21 0 -44 46
      q-28 57 -68 101l-25 27q-7 8 -7 14q0 11 13 11q7 0 15 -3l38 -15l15 -6q34 -13 44 -13q49 0 78 118q36 146 48 304q6 74 6 91q0 44 -15 56q-17 14 -51 14q-46 0 -171 -34q-80 -22 -146 -50q-32 -13 -46 -14q-8 0 -27 7l-48 19l-6 -8l-9 -12q-66 -89 -129 -141l-30 -25
      q-12 -10 -17 -10q-8 0 -8 12q0 9 8 23l19 32l36 58q31 51 92 189q51 119 79 229q25 98 25 139v6l-1 7q-2 36 32 36q25 0 84 -39q60 -40 60 -67q0 -8 -18 -31q-18 -22 -37 -57q-12 -22 -20 -39l-37 -78q-21 -44 -42 -81z" />
    </g>
  </symbol>
  <symbol xmlns="http://www.w3.org/2000/svg" id="P" fill="currentColor" viewBox="0 -1644 2048 2048">
    <g transform="scale(1, -1)">
      <path d="M696 382l-82 547q-27 183 -47 222q-12 24 -12 34q0 28 37 28t85 -28l52 -30q366 140 468 258q19 21 30 21q31 0 94 -43q93 -63 93 -100q0 -32 -60 -40q-72 -11 -269 -66l-145 -41l-210 -59l26 -244l509 105q73 15 120 31q34 11 47 11q36 0 90 -20q73 -28 73 -52
q0 -11 -8 -15q-8 -5 -52 -10l-297 -36q99 -46 119 -65q19 -19 19 -35q0 -8 -14 -28q-13 -18 -22 -53l-66 -249l308 35q28 3 85 14q36 7 56 7q33 0 116 -32q77 -29 77 -69q0 -19 -113 -23l-87 -3l-119 4q-20 1 -121 -5h-23q-72 -3 -183 -6h-36q-388 -8 -723 -67l-5 -1
l-73 -15l-57 -12q-47 -8 -60 -9q-19 -1 -55 19l-55 31q-37 20 -39 37q-1 16 24 16h33l52 4l34 2l30 3l26 1l21 2l164 10zM807 393l367 28l30 275v5v6q0 11 -6 59q-4 34 -6 39l-13 37l-276 -47l-42 -8q-53 -8 -55 -8l-5 1l-39 6zM336 -254l-28 -11q-3 -1 -6 -1q-11 1 -11 12
q0 5 9 11l19 13q84 58 211 166q192 162 205 253q6 39 34 39q21 0 52 -15q117 -60 117 -98q0 -13 -34 -27q-40 -17 -92 -59l-69 -55q-168 -135 -407 -228zM1211 113l-43 40q-14 13 -14 21q0 14 16 14q9 0 21 -4l69 -22q69 -22 172 -76q194 -101 194 -261q0 -33 -19 -53
q-15 -16 -33 -16q-55 0 -180 151q-7 8 -26 32q-119 139 -157 174z" />
    </g>
  </symbol>
  <symbol xmlns="http://www.w3.org/2000/svg" id="k" fill="currentColor" viewBox="0 -1644 2048 2048">
    <g transform="scale(1, -1)">
      <path d="M1110 1051l-12 -6q-13 -7 -17 -9l-61 -35l-43 -19q-10 -4 -18 -4q-18 1 -18 12q0 6 17 19l38 29q96 73 162 158q51 65 71 162q7 33 23 33q26 0 90 -33q56 -29 56 -60q0 -8 -24 -25q-24 -16 -42 -36l-45 -50l131 25q72 14 143 47q31 15 46 15q17 0 44 -17l44 -28
q62 -40 62 -69q0 -15 -39 -39q-36 -23 -71 -65l-90 -108q-116 -139 -263 -237q-157 -104 -306 -146l-42 -12q-17 -5 -26 -5q-16 0 -16 13q0 10 25 21l54 24q157 70 345 245l14 13h-9q-18 0 -65 51q-53 58 -99 93q-5 3 -10 7q-15 12 -22 17zM1374 897q2 3 7 7q50 49 106 128
l52 73q15 21 15 33q0 19 -26 19q-7 0 -50 -12q-60 -16 -149 -19l-117 -4l-68 -48q9 -4 40 -12l9 -3l9 -2q65 -20 111 -53q63 -43 63 -92v-4zM775 921l-15 -675l-1 -18q0 -31 3 -94q1 -4 1 -18q1 -15 3 -51q1 -28 1 -63q0 -84 -26 -149q-25 -61 -55 -61q-15 0 -36 34
q-34 55 -34 119q0 21 11 72l2 15q10 55 22 180l2 27q3 35 3 37l8 198l-181 -57q35 -28 35 -49q0 -10 -5 -19l-41 -71l-49 -100q-45 -92 -131 -178q-58 -59 -134 -93l-27 -12q-14 -7 -20 -6q-7 1 -7 6q0 9 15 23l27 25q58 53 105 128q34 54 66 125q32 73 39 106l13 65h-6h-9
q-38 0 -69 26q-58 49 -58 80q0 17 18 17h5h7l55 -6q25 -3 40 -3q8 0 14 1l301 46l5 284l-33 -9q-185 -47 -240 -95q-23 -21 -35 -21q-20 0 -45 40q-22 34 -23 59l20 65l23 99q7 33 9 101v14v7q0 36 -16 67q-7 15 -7 24q0 20 24 20q36 0 89 -33q44 -28 44 -51q0 -2 -4 -15
l-2 -5q-2 -4 -5 -13l-2 -5l-3 -6q-13 -31 -19 -82l-10 -78l-7 -46q4 -18 19 -23l45 8l181 27l2 263l2 57q1 45 -24 113q-12 31 -12 37q0 21 30 21q34 0 94 -28q53 -24 53 -60q0 -9 -12 -34q-18 -37 -24 -149zM1506 555l74 7h3l4 1q10 1 20 3q5 1 24 4q80 14 99 14
q22 0 72 -21q73 -32 73 -64q0 -17 -26 -19l-34 -2l-312 -3l5 -243q0 -5 3 -66q1 -33 2 -43q0 -10 1 -24q2 -35 2 -68q0 -149 -61 -230q-44 -59 -74 -59q-12 0 -36 29q-2 2 -7 9q-3 3 -12 13q-8 9 -28 31q-6 6 -16 18q-39 44 -49 53l-34 31q-21 19 -21 28q0 11 13 11
q10 0 23 -2l54 -9l60 -15q4 -1 10 -1q27 0 36 14q11 16 17 63l11 97q4 37 5 116l2 245l-173 -12q-2 0 -6 -1q-5 -1 -16 -2q-9 -1 -20 -3q-22 -3 -45 -5q-85 -11 -128 -22q-43 -12 -55 -12q-32 0 -98 30q-41 18 -42 37t34 19h64q29 0 143 15q118 15 220 23l109 8l-5 51
q-5 52 -28 99q-10 22 -10 33q0 20 31 20q54 0 106 -23q38 -16 39 -36q1 -10 -6 -26q-8 -15 -8 -25l-3 -39zM1153 874l46 14q3 1 9 1q14 0 14 -11q0 -6 -9 -12l-31 -21l-3 -1l-2 -2q-18 -11 -42 -25l-82 -49l-12 -7q-18 -10 -19 -11q-2 -1 -7 -5q-9 -8 -12 -10
q-17 -14 -28 -14q-16 0 -41 24l-5 4q-9 10 -22 21l-7 6q-25 22 -26 33q-1 15 7 19q8 3 49 3h6q74 0 217 43zM1047 176l-91 146q-5 8 -5 14q0 17 21 17q22 0 87 -21q125 -38 125 -132q0 -85 -61 -85q-38 0 -76 61z" />
    </g>
  </symbol>
  <symbol xmlns="http://www.w3.org/2000/svg" id="a" fill="currentColor" viewBox="0 -1644 2048 2048">
    <g transform="scale(1, -1)">
      <path d="M1093 665l18 1l26 2l25 1q99 7 204 19l150 16l36 3q57 6 90 11q29 4 44 7l9 1q36 6 51 6q39 0 113 -38q87 -44 87 -84q0 -23 -26 -23h-117h-40q-7 0 -29 1q-26 0 -66 1h-29q-63 1 -80 1h-44q-54 0 -205 -8l-48 -3q-68 -4 -99 -6l-70 -5l-8 -543q8 0 24 2l13 1l15 1l12 2
l103 8q75 5 178 27l7 2q26 5 38 5q21 0 81 -26q97 -41 97 -76q0 -23 -31 -23l-98 -2l-91 -3h-142q-159 0 -407 -27q-117 -13 -198 -33l-7 -2q-13 -3 -29 -6q-7 -2 -11 -2h-4l-5 1q-47 2 -108 30q-54 24 -54 51q0 15 21 16l68 3q31 1 191 17l121 12l93 11l-1 541l-18 -3
l-27 -3l-26 -4l-34 -5l-31 -4q-93 -14 -146 -24l-131 -25q-77 -15 -122 -34q-29 -12 -44 -12q-39 0 -111 45q-62 39 -62 67q0 14 30 17l111 9l76 6q63 5 119 13l162 23l32 4q9 1 78 9l46 6l97 11l1 406v55v23q-1 84 -11 121q-8 27 -30 59l-4 7q-14 21 -14 31q0 31 53 31
q76 0 155 -44q61 -33 61 -60q0 -8 -2 -14q0 -1 -1 -2q0 -1 -1 -3q-16 -23 -32 -71q-15 -45 -16 -68q-3 -28 -6 -87l-5 -69z" />
    </g>
  </symbol>
  <symbol xmlns="http://www.w3.org/2000/svg" id="e" fill="currentColor" viewBox="0 -1644 2048 2048">
    <g transform="scale(1, -1)">
      <path d="M1192 469q187 155 217 240q10 28 21 28q23 0 69 -45q54 -55 54 -89q0 -20 -37 -22q-19 -1 -33 -7q-9 -3 -19 -8q-34 -14 -80 -38l-101 -53l-64 -31q5 -4 15 -13q3 -2 9 -8q8 -7 12 -11q10 -8 12 -10l104 -102q107 -105 217 -167q145 -82 247 -102l47 -9l28 -6
q24 -5 24 -19q0 -10 -14 -15l-27 -9q-58 -20 -77 -23l-86 -15q-51 -10 -65 -10l-21 -1q-74 0 -180 129l-66 80l-87 99l-91 112q-4 5 -37 43q-27 30 -32 35l-28 29q71 -139 71 -318q0 -193 -55 -305q-34 -70 -79 -103q-32 -23 -54 -23q-7 1 -13 5q-2 1 -46 53l-56 67
q-11 14 -15 19q-9 10 -12 13q-8 10 -11 13q0 1 -2 2l-3 3q-2 2 -6 5q-4 4 -11 10q-10 10 -15 14l-17 15q-9 8 -9 13q0 7 13 7q11 0 19 -2l20 -5l36 -15q12 -5 54 -13q18 -3 21 -3h1q56 0 83 61q10 22 22 70q19 72 16 112l-1 11l-3 118l-7 -6q-17 -15 -44 -38l-18 -14
l-11 -10q-127 -109 -266 -180q-161 -83 -310 -108l-30 -5q-5 -1 -11 -1q-18 0 -18 11q0 8 18 15l20 8q16 6 49 23l134 65q104 50 222 142q129 101 190 173l53 63q-15 49 -19 56l-20 37q-118 -125 -272 -219q-81 -50 -205 -92q-65 -21 -108 -27l-16 -2q-8 -1 -9 -1
q-13 0 -13 10q0 6 8 10l22 12q3 2 6 3q5 3 33 15q88 39 164 89q211 140 276 224l41 53l-69 39q-5 -3 -17 -11l-12 -8l-18 -11q-107 -69 -173 -98q-72 -32 -162 -62l-24 -8q-9 -3 -14 -3q-12 0 -11 11q0 6 8 11l20 12l3 2q8 4 28 15l14 8l10 6q92 51 175 114q99 75 130 116
l36 48l-157 -12l-11 -16q-16 -23 -18 -23h-1l-1 1q-22 4 -33 27l-11 25l-1 2q-5 8 -6 11l-31 159q-7 37 -26 65l-25 22q-11 10 -11 20q0 15 23 15q2 0 7 -1l59 -11l33 -9l288 27l18 19l26 26q41 43 69 71q69 70 69 86q0 7 -17 6q-13 -1 -28 -4q-2 0 -12 -3q-7 -1 -26 -5
q-66 -15 -115 -15q-21 0 -33 3l-39 9q-17 -14 -34 -27q-101 -78 -177 -107l-28 -11q-12 -5 -17 -5q-9 0 -9 7t9 15l19 17l59 49q55 45 142 160q52 67 63 112q9 37 35 37q4 0 13 -3q38 -10 71 -30q40 -24 40 -48q0 -10 -33 -27q-20 -10 -33 -22l-69 -65l102 20q49 9 122 39
l47 19q26 10 38 10q31 0 79 -26q51 -27 51 -55q0 -10 -31 -24q-34 -14 -50 -27l-55 -44l-51 -37l-92 -78l-47 -33l117 20q138 23 205 49q22 8 33 9q26 2 97 -40q75 -43 75 -69q0 -7 -11 -19q-1 0 -3 -3q-2 -2 -8 -9q-31 -32 -67 -104l-48 -96q-35 -70 -72 -70q-23 0 -34 28
l-11 28l-314 -22q4 -4 10 -12q28 -34 29 -45q2 -16 -17 -21l-31 -8q-8 -2 -31 -20l-19 -15q108 -36 156 -101l25 -34q56 -15 72 -27zM952 1009l-276 -21l18 -177l256 17zM1042 839l119 17l52 9h3h9q19 -1 48 -12l30 -11l42 117q12 33 12 54q0 45 -60 45q-33 0 -108 -12
l-142 -23z" />
    </g>
  </symbol>
  <symbol xmlns="http://www.w3.org/2000/svg" id="h" fill="currentColor" viewBox="0 -1644 2048 2048">
    <g transform="scale(1, -1)">
      <path d="M1088 1257q33 -22 33 -36v-4q0 -9 -9 -36q-6 -18 -8 -37l-7 -62l149 30l54 11h3q23 0 55 -9l38 -11q48 -14 48 -38q0 -19 -42 -26l-44 -8l-105 -13l-154 -18l-7 -142l143 23h4l5 1l5 1l8 1q13 3 23 5l9 1q20 4 29 4q48 0 101 -23q40 -16 40 -33q0 -9 -19 -17
q-27 -12 -53 -15l-303 -36l-4 -157l308 26q104 8 169 25l7 1q27 7 33 7q25 0 63 -19l64 -32q70 -35 70 -69q0 -9 -20 -37q-33 -47 -44 -157l-21 -205q-18 -179 -94 -301q-33 -51 -86 -93q-62 -49 -90 -49q-19 0 -41 50q-12 29 -27 50q-28 41 -66 93q-9 13 -12 16q-1 2 -2 3
l-25 28q-7 8 -7 13q0 12 16 12q4 0 9 -2l44 -19l75 -26q30 -10 42 -11q52 -3 89 88q36 88 49 189l28 222q0 1 1 12q1 39 1 60q0 53 -14 63q-19 13 -74 13q-276 0 -571 -41q-203 -29 -290 -76q-22 -11 -32 -12q-34 -2 -62 48q-25 45 -25 64q0 8 15 32q25 44 40 184
q19 178 19 339q0 115 -24 155l-19 32q-4 11 -4 19q0 19 29 19q28 0 65 -15l57 -23l250 32q162 19 314 53l58 13q23 5 38 5q18 0 54 -15q48 -20 49 -37q1 -20 -33 -27l-38 -8q-75 -16 -194 -31zM971 597l3 157l-137 -13q-62 -6 -77 -6t-45 9l-28 8l-7 -140q-1 -19 -1 -24
q0 -28 5 -32q4 -2 16 -2q9 0 32 4zM691 810l283 32v139l-225 -12l-45 9zM708 1035l264 31v56q0 64 -15 92l-13 24q-10 -1 -45 -3l-24 -2q-52 -3 -66 -3q-18 0 -28 1l-42 3q-15 -31 -20 -86zM905 300l-17 35q-5 10 -5 14q0 17 20 13l44 -8q55 -10 104 -42q45 -30 45 -101
q0 -31 -17 -49q-21 -22 -37 -22q-31 0 -80 74l-34 51q-19 26 -23 35zM1195 346l-24 32q-6 8 -6 12q0 17 20 13l48 -10q17 -3 77 -22q68 -21 90 -38q31 -23 31 -71q0 -88 -56 -92q-26 -2 -84 64l-50 57q-31 34 -46 55zM353 325l10 39q5 21 20 21q9 0 14 -13l10 -25
q18 -44 18 -119q0 -74 -35 -162q-43 -107 -83 -107q-59 0 -59 115q0 36 25 74l4 8q58 95 66 128zM583 309q-3 10 -3 16q0 7 10 7q3 0 13 -2l25 -5q40 -8 99 -47q51 -33 51 -103q0 -71 -45 -71q-37 0 -72 64l-33 60q-6 11 -13 21q-7 11 -9 15q-5 12 -8 14z" />
    </g>
  </symbol>
  <symbol xmlns="http://www.w3.org/2000/svg" id="r" fill="currentColor" viewBox="0 -1644 2048 2048">
    <g transform="scale(1, -1)">
      <path d="M1072 473l-4 -173l16 1l22 2q36 3 63 6l100 9q229 20 334 35l58 8l75 13q48 -3 108 -40q64 -40 64 -73q0 -29 -93 -29l-19 1l-82 3h-48h-35h-84q-163 -1 -295 -8l-25 -2l-34 -2q-35 -1 -44 -2h-11q-12 -1 -16 -1l-56 -4l-2 -94q-1 -43 -7 -138q-6 -105 -19 -178l-3 -23
q-5 -24 -7 -37q-17 -96 -45 -96q-26 0 -29 154v16q-1 11 -2 42l-1 26v18q-3 80 -2 115l3 185q-5 -1 -18 -2q-1 0 -31 -2l-19 -1q-303 -19 -490 -80q-28 -9 -45 -9q-34 0 -87 29q-74 41 -74 71q0 14 34 17l34 3l111 4q35 1 96 7q20 2 74 7l35 3l37 4q37 3 92 7q75 7 143 14
l110 10l3 175q-7 -1 -21 -2q-38 -3 -119 -6l-46 -2l-51 -2l-9 -24q-6 -17 -24 -17q-36 0 -50 99l-2 21l-33 254q-14 108 -60 152q-14 13 -14 20q0 18 29 17h3l45 -6l51 -6q6 -1 7 -1q12 0 38 3q7 1 39 2q52 3 167 20l59 8l3 174q-142 -22 -238 -22q-75 0 -114 20
q-32 16 -32 38q0 8 16 11l20 3q12 2 51 5l21 2l16 1q28 2 35 3q12 1 16 2q8 0 20 2l122 18l69 9v7v11v10v12l-1 11q-2 114 -20 161l-9 24q-5 12 -5 22q0 24 30 24q36 0 102 -33q61 -31 61 -61q0 -5 -9 -25q-11 -23 -19 -70q-2 -9 -2 -11l-2 -12l-5 -52q22 3 38 5l16 3l12 2
l67 11q54 8 94 20q31 9 40 9q36 0 91 -23q46 -19 46 -38q0 -26 -66 -37l-66 -11l-6 -1q-27 -5 -96 -12q-94 -10 -135 -16l-39 -6l-1 -24l-3 -146l103 15q94 14 169 45q26 11 39 11q42 0 127 -48q39 -21 61 -50q15 -19 15 -27q0 -13 -37 -61q-26 -35 -42 -89l-72 -249
q-37 -128 -90 -128q-27 0 -41 27l-18 31zM1077 710l-3 -162q5 0 17 2l10 1l11 2l10 1l10 1l12 1q58 6 91 6q36 0 51 -6l28 -12l5 21l9 32l7 28l7 25l6 22l3 12q15 56 17 65l5 24q-69 -36 -230 -54q-11 -1 -26 -3zM961 697l-12 -2q-28 -3 -52 -6l-17 -2l-10 -1l-10 -1
q-18 -2 -28 -3q-8 -1 -13 -1l-18 -2l-6 -1q-14 -1 -17 -1q-8 0 -14 1l-55 6q1 -9 2 -32l1 -15q1 -14 2 -17v-3l6 -105l30 3l41 4l36 4l63 6l68 6zM1079 792l86 21l83 21q51 -2 71 -13l56 -33l15 106q3 22 3 36q0 48 -42 48h-6q-14 0 -52 -3l-32 -3q-83 -8 -96 -10l-83 -13z
M962 773l3 158q-8 -1 -26 -4q-21 -2 -32 -4q-55 -8 -81 -9l-141 -9l2 -18l3 -26l2 -21q4 -33 4 -34l6 -61q25 1 78 7q23 2 43 5l18 1l17 2l16 2l10 1q22 2 49 5l4 1z" />
    </g>
  </symbol>
  <symbol xmlns="http://www.w3.org/2000/svg" id="c" fill="currentColor" viewBox="0 -1644 2048 2048">
    <g transform="scale(1, -1)">
      <path d="M673 1026l16 2l25 4l22 3l27 4l23 3l18 3q16 2 33 5l229 40q8 1 40 6q48 7 79 14q57 12 104 27l5 1l5 2l7 2l6 2q14 4 21 4q30 0 82 -31q88 -52 88 -74q0 -19 -11 -34l-18 -28q-2 -3 -5 -15l-1 -6l-1 -6l-18 -70l-62 -319q-34 -171 -90 -258q-26 -41 -64 -72
q-41 -34 -61 -34q-15 0 -33 31l-23 37q-9 16 -40 58q-28 37 -49 69q-4 6 -5 8q-3 4 -3 5l-2 2l-16 22q-6 7 -6 10q0 6 13 6q5 0 9 -2l31 -14l39 -20l40 -15q32 -12 41 -12q46 0 77 113q44 161 61 337l9 95q4 36 4 48q0 67 -81 67q-23 0 -92 -9q-245 -33 -344 -68
q-52 -19 -78 -19t-46 12l-42 24q-7 -5 -21 -17q-102 -85 -193 -124l-34 -14q-5 -2 -7 -2q-7 1 -7 8t6 11l34 27q61 49 175 185q72 88 147 225q38 71 38 125v7v7q0 36 26 36q27 0 73 -35q61 -47 61 -77q0 -7 -15 -18l-4 -4l-4 -3l-4 -4q-15 -14 -31 -35q-17 -22 -61 -85
q-46 -66 -70 -93zM530 344l-3 -150l-1 -17q0 -113 39 -158q104 -122 546 -122q273 0 438 54q133 43 176 131q32 66 51 168l9 42q2 12 10 12q9 0 12 -10l9 -33l11 -59q0 -1 1 -4q0 -3 3 -13q28 -108 60 -167q20 -35 20 -50q0 -28 -44 -64q-69 -56 -281 -110
q-171 -43 -380 -43q-468 0 -665 156q-67 53 -89 128q-14 47 -14 133l1 17l4 340l2 55l-9 95q-3 25 -10 36l-1 3q-9 14 -8 19q2 17 29 17q44 0 87 -36l20 -17q13 2 31 5q64 13 117 27q53 15 91 34l9 4q36 20 57 20q24 0 68 -24q72 -40 72 -65q0 -13 -15 -29l-22 -26
q-32 -36 -59 -104l-39 -95q37 -22 37 -40q0 -27 -51 -27h-8q-35 0 -89 -8l-99 -14l-52 -9q-34 -5 -39 -5zM536 413l15 4l22 5l21 4l22 6l20 4l81 19l61 14l36 161q2 11 2 21q0 24 -23 25q-12 1 -32 -4l-7 -1l-9 -2l-13 -2l-15 -2q-54 -10 -135 -29l-24 -6q-1 -7 -2 -18
q-1 -4 -1 -7q0 -4 -1 -5l-7 -47z" />
    </g>
  </symbol>
  <symbol xmlns="http://www.w3.org/2000/svg" id="p" fill="currentColor" viewBox="0 -1644 2048 2048">
    <g transform="scale(1, -1)">
      <path d="M962 445q2 43 2 65q0 47 -4 68l-7 38q-4 22 -7 33q-4 12 -4 19q-1 16 19 16q7 0 18 -2l47 -9q40 -8 74 -36q19 -17 19 -35q0 -10 -3 -17l-2 -6l-3 -7l-3 -8q-14 -31 -15 -44l-5 -69l283 21q99 8 197 25l15 2q65 12 87 12q52 0 124 -34q68 -31 68 -55q0 -31 -88 -31h-20
q-32 0 -116 1l-38 1h-26l-24 1h-14h-33q-123 0 -157 -2l-261 -12l-22 -519q-2 -58 -31 -157q-21 -72 -45 -71q-28 2 -31 94l-5 79l3 58l9 508l-167 -11q-74 -5 -155 -17q-146 -22 -166 -27l-61 -15q-36 -9 -62 -9q-53 0 -110 31q-50 27 -52 52q-1 17 40 17h10h10h14h12
q12 0 21 1l53 4l70 2h28q33 1 39 2l217 23l188 14zM698 834q101 -28 132 -51q58 -44 58 -95q0 -26 -16 -48q-12 -16 -29 -16q-47 0 -104 80l-66 93q-127 -142 -222 -188l-31 -15q-6 -3 -11 -3q-9 0 -9 13q0 8 8 16l20 19q70 67 161 197q33 47 57 101q25 57 25 85q0 3 -1 14
q-2 12 -2 18q0 20 17 20q7 0 21 -4l28 -8q24 -7 62 -36q28 -22 28 -37q0 -24 -45 -62q-15 -13 -26 -26zM1022 1238q-7 8 -20 24q-52 65 -101 175l-14 32q-4 8 -4 12q0 9 17 9q8 0 47 -10l15 -4q73 -20 109 -57q42 -42 42 -89q0 -6 -3 -17l-17 -64l172 21q85 10 143 29
q42 14 56 14q38 0 89 -22q54 -24 54 -51q0 -36 -286 -61l-228 -22l-242 -20q-197 -18 -245 -18q-161 0 -161 41v6q0 16 13 23q9 5 59 7l59 2q99 3 361 31zM1323 862l14 -4l22 -7l23 -6q44 -13 61 -17q62 -17 100 -50q41 -35 41 -76q0 -34 -18 -55q-13 -16 -32 -16
q-39 0 -102 66l-98 102l-32 30q-67 -87 -134 -134l-31 -22q-6 -4 -9 -4q-11 0 -11 11q0 5 4 12l19 33l42 72l26 52l13 27q64 136 64 193q0 7 -2 17q-1 8 -1 14q0 20 17 20q10 0 30 -8l34 -14q19 -8 44 -28q30 -24 30 -40q0 -8 -10 -18l-17 -17q-5 -5 -33 -49z" />
    </g>
  </symbol>
</svg>
